<?xml version="1.0" encoding="utf-8"?>
<!-- Generator: Adobe Illustrator 19.1.0, SVG Export Plug-In . SVG Version: 6.00 Build 0)  -->
<svg version="1.1" id="Layer_1" xmlns="http://www.w3.org/2000/svg" xmlns:xlink="http://www.w3.org/1999/xlink" x="0px" y="0px"
	 viewBox="0 0 529.7 530" style="enable-background:new 0 0 529.7 530;" xml:space="preserve">
<style type="text/css">
	.st0{fill:#1A85AA;}
	.st1{fill:#09758E;}
	.st2{fill:#47B7E7;}
	.st3{fill:#8ED0EC;}
	.st4{fill:#22A5D3;}
	.st5{fill:#1290B2;}
	.st6{fill:#F2F2F2;}
	.st7{fill:#E76CB4;}
	.st8{fill:#E5E5E5;}
	.st9{fill:#9C2A70;}
</style>
<circle class="st0" cx="264.8" cy="264.8" r="264.8"/>
<path class="st1" d="M505.8,264.8c0,130.2-103.3,236.3-232.3,240.8l-3.5,23.9c137.9-2.6,250-110.7,259.1-246.9L505.8,264.8z"/>
<circle class="st2" cx="264.8" cy="264.8" r="241"/>
<circle class="st3" cx="264.8" cy="264.8" r="217.7"/>
<path class="st4" d="M482.5,264.8c0-6.7-0.3-13.4-0.9-20l-102.6-83l-119.3,103l4.6,217.7c0.2,0,0.4,0,0.5,0
	C385,482.5,482.5,385,482.5,264.8z"/>
<path class="st5" d="M481.6,244.9L481.6,244.9c0.6,6.6,0.9,13.2,0.9,20c0,117.9-93.8,214-210.9,217.6l-2.3,23.4
	c131.1-2.4,236.6-109.3,236.6-240.9L481.6,244.9z"/>
<g>
	<path class="st6" d="M264.7,161.8h147.8l-128.8,181c0,0-13,18.9-11.8,32.6l-0.1,105.1c0,0,0.7,16.3,3.4,20.6
		c0,0,7.8,22.2,32.3,25.2h-42.9L264.7,161.8z"/>
	<path class="st6" d="M264.6,161.8H116.9l128.8,181c0,0,13,18.9,11.8,32.6l0.1,105.1c0,0-0.7,16.3-3.4,20.6c0,0-7.8,22.2-32.3,25.2
		h42.9L264.6,161.8z"/>
</g>
<g>
	<path class="st7" d="M179.1,207.8c0,0-11.8,0.8-2.8,12.3l65,91.8c0,0,12.2,12.7,23.4,12.7l0.1-116.7H179.1z"/>
	<path class="st7" d="M350.4,207.8c0,0,11.8,0.8,2.8,12.3l-65,91.8c0,0-11.1,12.7-23.4,12.7l-0.1-116.7H350.4z"/>
</g>
<polygon class="st8" points="365.6,150.9 333.1,186.7 338.1,189.7 340.3,190.9 "/>
<polygon class="st8" points="320.1,211.7 323.6,213.9 290.8,252.7 317.3,210.2 "/>
<circle class="st9" cx="327.1" cy="203.9" r="21.3"/>
<polygon class="st4" points="365.6,150.9 379,161.8 358.7,161.8 "/>
<path class="st6" d="M264.7,526.3l-42.9,0c13.9,2.4,28.6,3.7,43,3.7s28.9-1.3,42.7-3.7l-42.7,0H264.7z"/>
</svg>
